<?xml version="1.0" encoding="iso-8859-1"?>
<!-- Uploaded to: SVG Repo, www.svgrepo.com, Generator: SVG Repo Mixer Tools -->
<svg height="800px" width="800px" version="1.1" id="Layer_1" xmlns="http://www.w3.org/2000/svg" xmlns:xlink="http://www.w3.org/1999/xlink" 
	 viewBox="0 0 504 504" xml:space="preserve">
<path style="fill:#835124;" d="M444.6,262.7c-0.5,0-1.1,0-1.6,0.1h-80.3l-1.1,3.5c-5.2,17-20.3,28.5-37.6,28.5h-87.1l16.6,9.4
	c13.2,7.4,24.2,17.6,32.7,30.4l1.5,2.2h155.5c10,0,17.8-7.8,17.8-17.8v-39.2C461,270.2,453.8,262.7,444.6,262.7z M443,317.2H297.7
	c-1.6-2.1-3.2-4.1-4.9-6H324c21.6,0,41.8-12.7,51.2-32h67.7c0,0,0.1,0,0.1,0.1L443,317.2L443,317.2z"/>
<path style="fill:#CC9966;" d="M448,280.8V320c0,2.4-2.4,4.8-4.8,4.8H294.4c-4-5.6-8.8-11.2-14.4-16h43.2c20.8,0,40-12.8,48-32h71.2
	C446.4,276,448,278.4,448,280.8z"/>
<g>
	<path style="fill:#B37D4D;" d="M291.5,343l2.2,6.6c3,9.1,4.7,17.3,5.2,25.4h-6c-3.3-59.2-64.4-76.8-77-79.8l-0.5-0.1
		c-0.7-0.1-1.5-0.6-2-1.3c-0.2-0.3-0.6-0.9-0.5-1.6c0.3-1.5,1.5-3.2,3.1-3.2h108c17.9,0,33-15.1,33-33s-15.1-33-33-33H147v85
		c0,38.3,15.3,74.2,43.1,101.1c25.8,25.8,60.2,40,96.8,40c2,0,4.1,0,6.2-0.1c58.7-2.5,110.4-42.5,128.5-99.5l2.1-6.5H291.5z
		 M292.7,431H288c-31.9,0-62.2-12.3-85.4-34.6C178.4,373.6,165,342.2,165,308v-67h159c8.4,0,15,6.6,15,15s-6.6,15-15,15H216
		c-10.7,0-19.9,8.3-21,18.9s6.5,20.9,16.8,23h0.2h0.2c3.1,0.3,19,4,34,14.2c19.1,12.9,28.7,30.7,28.7,52.9v13h42v-13
		c0-6.3-0.5-12.7-1.4-19h82.3C377.9,402.3,337.4,429.5,292.7,431z"/>
	<path style="fill:#B37D4D;" d="M396,55c-17.9,0-33,15.1-33,33v16h10c0-12.7,8.5-23,19-23s19,10.3,19,23v153h18V88
		C429,70.1,413.9,55,396,55z"/>
</g>
<g>
	<path style="fill:#E4C6A1;" d="M416,104v148h-48v-24v-52v-72c0-15.2,10.4-28,24-28S416,88.8,416,104z"/>
	<path style="fill:#E4C6A1;" d="M309.6,356h96c-19.2,46.4-63.2,78.4-112.8,80c-1.6,0-3.2,0-4.8,0c-33.6,0-64.8-12.8-88.8-36
		c-25.6-24-39.2-56.8-39.2-92v-72h164c11.2,0,20,8.8,20,20s-8.8,20-20,20H216c-8,0-15.2,6.4-16,14.4s4.8,16,12.8,17.6
		c7.2,1.6,67.2,16,67.2,72v8h32v-8C312,372,311.2,364,309.6,356z"/>
</g>
<path style="fill:#B37D4D;" d="M324,143c-17.9,0-33,15.1-33,33v16h10c0-12.5,10.5-23,23-23s23,10.5,23,23h10v-16
	C357,158.1,341.9,143,324,143z"/>
<path style="fill:#E4C6A1;" d="M352,192v30.4c-8-6.4-17.6-10.4-28-10.4h-28v-20c0-15.2,12.8-28,28-28S352,176.8,352,192z"/>
<path style="fill:#B37D4D;" d="M252,143c-17.9,0-33,15.1-33,33v16h10c0-12.5,10.5-23,23-23s23,10.5,23,23h10v-16
	C285,158.1,269.9,143,252,143z"/>
<path style="fill:#E4C6A1;" d="M280,192v20h-56v-20c0-15.2,12.8-28,28-28C267.2,164,280,176.8,280,192z"/>
<path style="fill:#B37D4D;" d="M180,55c-17.9,0-33,15.1-33,33v129h18V100.8c0-10.7,8.7-19.8,19-19.8s19,9.1,19,19.8h10V88
	C213,70.1,197.9,55,180,55z"/>
<path style="fill:#E4C6A1;" d="M208,100.8V212h-48V100.8c0-13.6,11.2-24.8,24-24.8S208,87.2,208,100.8z"/>
<g>
	<path style="fill:#CC9966;" d="M121.5,331l-1.2,6h24.2l-1.2-6c-1.5-7.6-2.3-15.4-2.3-23v-45h-20.5l1,5.8l0.3,1.8
		c0.7,3.9,1.2,7.2,1.2,11v36.8C123,322.9,122.2,327.5,121.5,331z"/>
	<path style="fill:#CC9966;" d="M141,308v-45h-20.5l1,5.8l0.3,1.8c0.7,3.9,1.2,7.2,1.2,11v36.8c0,4.5-0.8,9.1-1.5,12.6l-1.2,6h24.2
		l-1.2-6C141.8,323.4,141,315.6,141,308z"/>
</g>
<g>
	<path style="fill:#E0CBB5;" d="M112,316v2.4c0,20.8-16.8,37.6-37.6,37.6H53.6C32.8,356,16,339.2,16,318.4V316
		c0,17.6,16.8,32,37.6,32h20.8C95.2,348,112,333.6,112,316z"/>
	<path style="fill:#E0CBB5;" d="M74.4,343H53.6c-18,0-32.6-12.1-32.6-27H11v2.4c0,23.5,19.1,42.6,42.6,42.6h20.8
		c23.5,0,42.6-19.1,42.6-42.6V316h-10C107,330.9,92.4,343,74.4,343z"/>
	<path style="fill:#E0CBB5;" d="M74.4,239H53.6C30.1,239,11,258.1,11,281.6v2.4h10c0-14.9,14.6-27,32.6-27h20.8
		c18,0,32.6,12.1,32.6,27h10v-2.4C117,258.1,97.9,239,74.4,239z"/>
	<path style="fill:#E0CBB5;" d="M112,281.6v2.4c0-17.6-16.8-32-37.6-32H53.6C32.8,252,16,266.4,16,284v-2.4
		c0-20.8,16.8-37.6,37.6-37.6h20.8C95.2,244,112,260.8,112,281.6z"/>
</g>
<path style="fill:#FFF8EF;" d="M112,284v32c0,17.6-16.8,32-37.6,32H53.6C32.8,348,16,333.6,16,316v-32c0-17.6,16.8-32,37.6-32h20.8
	C95.2,252,112,266.4,112,284z M96,340v-16H80v16H96z M96,308v-16H80v16H96z M96,276v-16H80v16H96z M72,324v-16H56v16H72z M72,292
	v-16H56v16H72z M48,340v-16H32v16H48z M48,308v-16H32v16H48z M48,276v-16H32v16H48z"/>
<path style="fill:#42210B;" d="M504,396v16c-13.6,0-24-10.4-24-24v-72c0-4-4-8-8-8v11.2c0,16-12.8,28.8-28.8,28.8h-9.6
	c-18.4,64-75.2,109.6-140,112c-1.6,0-4,0-5.6,0c-40,0-76.8-15.2-105.6-42.4c-20-19.2-33.6-43.2-40.8-69.6h-22.4
	c-9.6,14.4-26.4,24-44.8,24H53.6C24,372,0,348,0,318.4v-36.8C0,252,24,228,53.6,228h20.8c18.4,0,35.2,9.6,44.8,24H136v-32V88
	c0-24,20-44,44-44s44,20,44,44v54.4c8-6.4,17.6-10.4,28-10.4c15.2,0,28,7.2,36,18.4c8-11.2,20.8-18.4,36-18.4c10.4,0,20,4,28,10.4
	V88c0-24,20-44,44-44s44,20,44,44v164h3.2c16,0,28.8,12.8,28.8,28.8V292c13.6,0,24,10.4,24,24v72C496,392,500,396,504,396z
	 M456,319.2V280c0-7.2-5.6-12.8-12.8-12.8h-76.8c-5.6,18.4-22.4,32-42.4,32h-68c12,7.2,24.8,17.6,34.4,32h152.8
	C450.4,332,456,326.4,456,319.2z M424,252V104V88c0-15.2-12.8-28-28-28s-28,12.8-28,28v16v72v52v24h48H424z M416.8,348H298.4
	c3.2,9.6,5.6,20,5.6,32h-16c0-64.8-70.4-79.2-73.6-80c-4-0.8-6.4-4.8-6.4-8.8s4-7.2,8-7.2h108c15.2,0,28-12.8,28-28s-12.8-28-28-28
	H152v80c0,37.6,15.2,72,41.6,97.6s62.4,39.2,99.2,38.4C349.6,441.6,399.2,403.2,416.8,348z M352,222.4V192v-16c0-15.2-12.8-28-28-28
	s-28,12.8-28,28v16v20h28C334.4,212,344,216,352,222.4z M280,212v-20v-16c0-15.2-12.8-28-28-28s-28,12.8-28,28v16v20H280z M208,212
	V100.8V88c0-15.2-12.8-28-28-28s-28,12.8-28,28v12.8V212h8H208z M126.4,332h12c-1.6-8-2.4-16-2.4-24v-40h-9.6
	c0.8,4,1.6,8.8,1.6,13.6v36.8C128,323.2,127.2,328,126.4,332z M112,318.4V316v-32v-2.4c0-20.8-16.8-37.6-37.6-37.6H53.6
	C32.8,244,16,260.8,16,281.6v2.4v32v2.4c0,20.8,16.8,37.6,37.6,37.6h20.8C95.2,356,112,339.2,112,318.4z M80,324h16v16H80V324z
	 M80,292h16v16H80V292z M80,260h16v16H80V260z M56,308h16v16H56V308z M56,276h16v16H56V276z M32,324h16v16H32V324z M32,292h16v16H32
	V292z M32,260h16v16H32V260z"/>
</svg>